<svg width="770" height="540" viewBox="0 0 770 540" fill="none" xmlns="http://www.w3.org/2000/svg">
<path fill-rule="evenodd" clip-rule="evenodd" d="M0 0H770V503.78C770 503.78 579.083 540 386.069 540C193.056 540 0 503.78 0 503.78V0Z" fill="#24053E"/>
<mask id="mask0_34_69" style="mask-type:alpha" maskUnits="userSpaceOnUse" x="0" y="0" width="768" height="541">
<path fill-rule="evenodd" clip-rule="evenodd" d="M0 0H768V504C768 504 577.579 540.236 385.067 540.236C192.554 540.236 0 504 0 504V0Z" fill="#24053E"/>
</mask>
<g mask="url(#mask0_34_69)">
<path d="M-32.2378 242.883C-18.3951 216.849 -0.547955 196.133 17.0944 183.678C34.7629 171.205 52.0875 167.101 64.9986 173.966C77.9097 180.831 84.1956 197.488 83.7346 219.111C83.2744 240.702 76.0803 267.082 62.2375 293.117C48.3948 319.151 30.5476 339.867 12.9053 352.322C-4.76317 364.795 -22.0878 368.899 -34.9989 362.034C-47.91 355.169 -54.1959 338.512 -53.7349 316.889C-53.2747 295.298 -46.0806 268.918 -32.2378 242.883Z" stroke="#44FFA1"/>
<path d="M-68.2378 223.883C-54.3951 197.849 -36.548 177.133 -18.9056 164.678C-1.23714 152.205 16.0875 148.101 28.9986 154.966C41.9097 161.831 48.1956 178.488 47.7346 200.111C47.2744 221.702 40.0803 248.082 26.2375 274.117C12.3948 300.151 -5.45235 320.867 -23.0947 333.322C-40.7632 345.795 -58.0878 349.899 -70.9989 343.034C-83.91 336.169 -90.1959 319.512 -89.7349 297.889C-89.2747 276.298 -82.0806 249.918 -68.2378 223.883Z" stroke="#44FFA1"/>
<path opacity="0.75" d="M-102.355 205.353C-88.5114 179.317 -70.7621 158.548 -53.2781 146.008C-35.7658 133.447 -18.6642 129.233 -6.0013 135.966C6.66164 142.699 12.7309 159.234 12.1105 180.776C11.4912 202.283 4.19808 228.612 -9.64527 254.647C-23.4886 280.683 -41.238 301.452 -58.7219 313.992C-76.2342 326.553 -93.3358 330.767 -105.999 324.034C-118.662 317.301 -124.731 300.767 -124.111 279.224C-123.491 257.717 -116.198 231.388 -102.355 205.353Z" stroke="#44FFA1"/>
<path opacity="0.5" d="M-139.238 184.883C-125.395 158.849 -107.548 138.133 -89.9056 125.678C-72.2371 113.205 -54.9125 109.101 -42.0014 115.966C-29.0903 122.831 -22.8044 139.488 -23.2654 161.111C-23.7256 182.702 -30.9197 209.082 -44.7625 235.117C-58.6052 261.151 -76.4524 281.867 -94.0947 294.322C-111.763 306.795 -129.088 310.899 -141.999 304.034C-154.91 297.169 -161.196 280.512 -160.735 258.889C-160.275 237.298 -153.081 210.918 -139.238 184.883Z" stroke="#44FFA1"/>
<path d="M767.976 353.127C780.746 361.741 790.54 372.114 796.062 381.9C801.601 391.716 802.77 400.793 798.61 406.961C794.449 413.13 785.596 415.446 774.42 413.987C763.277 412.533 749.99 407.338 737.22 398.725C724.451 390.111 714.656 379.738 709.134 369.951C703.595 360.136 702.426 351.059 706.587 344.891C710.747 338.722 719.601 336.406 730.777 337.865C741.92 339.319 755.206 344.514 767.976 353.127Z" stroke="#44FFA1"/>
<path d="M779.976 335.127C792.746 343.741 802.54 354.114 808.062 363.9C813.601 373.716 814.77 382.793 810.61 388.961C806.449 395.13 797.596 397.446 786.42 395.987C775.277 394.533 761.99 389.338 749.22 380.725C736.451 372.111 726.656 361.738 721.134 351.951C715.595 342.136 714.426 333.059 718.587 326.891C722.747 320.722 731.601 318.406 742.777 319.865C753.92 321.319 767.206 326.514 779.976 335.127Z" stroke="#44FFA1"/>
<path opacity="0.75" d="M790.976 318.127C803.746 326.741 813.54 337.114 819.062 346.9C824.601 356.716 825.77 365.793 821.61 371.961C817.449 378.13 808.596 380.446 797.42 378.987C786.277 377.533 772.99 372.338 760.22 363.725C747.451 355.111 737.656 344.738 732.134 334.951C726.595 325.136 725.426 316.059 729.587 309.891C733.747 303.722 742.601 301.406 753.777 302.865C764.92 304.319 778.206 309.514 790.976 318.127Z" stroke="#44FFA1"/>
<path opacity="0.5" d="M802.976 300.127C815.746 308.741 825.54 319.114 831.062 328.9C836.601 338.716 837.77 347.793 833.61 353.961C829.449 360.13 820.596 362.446 809.42 360.987C798.277 359.533 784.99 354.338 772.22 345.725C759.451 337.111 749.656 326.738 744.134 316.951C738.595 307.136 737.426 298.059 741.587 291.891C745.747 285.722 754.601 283.406 765.777 284.865C776.92 286.319 790.206 291.514 802.976 300.127Z" stroke="#44FFA1"/>
<path opacity="0.25" d="M815.976 282.127C828.746 290.741 838.54 301.114 844.062 310.9C849.601 320.716 850.77 329.793 846.61 335.961C842.449 342.13 833.596 344.446 822.42 342.987C811.277 341.533 797.99 336.338 785.22 327.725C772.451 319.111 762.656 308.738 757.134 298.951C751.595 289.136 750.426 280.059 754.587 273.891C758.747 267.722 767.601 265.406 778.777 266.865C789.92 268.319 803.206 273.514 815.976 282.127Z" stroke="#44FFA1"/>
</g>
</svg>
